<?xml version="1.0" encoding="UTF-8"?>
<svg width="512" height="512" viewBox="0 0 512 512" xmlns="http://www.w3.org/2000/svg">
  <style>
    .fg { fill: #1a1a1a; }

    @media (prefers-color-scheme: dark) {
      .fg { fill: #fefefe; }
    }
  </style>

  <g class="fg">
    <path d="M 248.63 0.00 L 257.55 0.00 C 295.55 0.28 333.37 11.90 364.89 33.12 C 400.40 56.71 427.73 92.22 441.50 132.56 C 450.78 158.86 460.13 185.14 469.37 211.45 C 483.37 251.41 485.72 295.30 476.29 336.56 C 468.15 372.66 450.77 406.59 426.39 434.40 C 402.05 462.35 370.82 484.32 336.13 497.41 C 311.59 506.76 285.39 511.50 259.15 512.00 L 253.01 512.00 C 219.08 511.43 185.22 503.48 154.90 488.16 C 100.92 461.29 58.51 411.96 40.51 354.36 C 27.35 312.72 26.54 267.24 38.33 225.18 C 41.21 214.76 45.06 204.64 48.62 194.44 C 56.47 172.33 64.21 150.17 72.13 128.08 C 88.47 83.34 121.92 45.22 164.04 23.01 C 190.02 9.03 219.21 1.44 248.63 0.00 M 173.92 51.79 C 145.56 67.87 122.11 92.48 107.55 121.67 C 145.46 123.87 183.26 133.12 216.72 151.35 C 236.03 161.61 253.88 174.39 271.06 187.86 C 299.13 209.88 326.49 233.64 359.08 248.85 C 387.81 262.73 419.65 269.23 451.39 270.64 C 449.93 250.17 444.69 230.17 437.44 211.03 C 410.87 210.95 384.28 205.70 359.88 195.12 C 326.78 180.95 297.78 157.44 277.01 128.03 C 256.71 99.54 244.41 65.50 241.62 30.63 C 217.88 32.70 194.61 39.96 173.92 51.79 M 271.76 30.76 C 275.78 75.25 298.93 117.47 334.03 145.05 C 360.30 166.04 393.13 178.60 426.69 180.66 C 422.04 167.54 417.41 154.41 412.76 141.29 C 403.70 115.35 388.10 91.75 367.74 73.30 C 341.44 49.27 307.23 34.09 271.76 30.76 M 95.76 151.17 C 87.58 174.19 79.46 197.23 71.32 220.26 C 65.45 236.71 61.86 253.94 60.55 271.35 C 87.53 272.63 114.51 277.44 139.73 287.29 C 154.31 292.88 168.16 300.24 181.31 308.63 C 211.06 327.54 236.25 352.47 264.11 373.88 C 283.43 388.71 304.63 401.44 327.78 409.27 C 350.33 417.06 374.22 420.40 398.01 420.94 C 428.93 388.56 448.22 345.36 451.44 300.68 C 429.93 299.73 408.44 296.91 387.64 291.26 C 355.58 282.95 325.88 267.21 299.23 247.76 C 268.64 225.73 241.03 199.46 208.05 180.86 C 193.48 172.65 178.06 165.88 162.00 161.18 C 140.52 154.80 118.12 151.87 95.76 151.17 M 60.61 301.41 C 61.46 311.80 63.09 322.13 65.54 332.27 C 104.97 337.01 142.33 356.58 168.72 386.26 C 191.17 411.21 205.65 443.14 209.73 476.46 C 262.45 489.49 320.40 479.23 365.28 448.61 C 343.70 445.78 322.36 440.40 302.39 431.64 C 279.95 422.17 259.48 408.61 240.47 393.51 C 216.61 374.73 194.62 353.53 169.29 336.65 C 155.23 327.24 140.10 319.37 124.19 313.60 C 103.79 306.27 82.22 302.53 60.61 301.41 M 76.52 364.67 C 96.03 409.27 132.74 445.95 177.32 465.48 C 172.53 445.28 163.05 426.21 149.78 410.23 C 131.16 387.63 105.03 371.36 76.52 364.67 Z"/>
    <path d="M 110.10 203.50 C 120.10 203.50 130.09 203.49 140.09 203.50 C 140.10 213.50 140.10 223.50 140.09 233.50 C 130.09 233.51 120.10 233.50 110.10 233.50 C 110.09 223.50 110.09 213.50 110.10 203.50 Z"/>
    <path d="M 313.38 313.38 C 323.38 313.37 333.38 313.37 343.38 313.39 C 343.38 323.38 343.39 333.38 343.37 343.37 C 333.38 343.39 323.38 343.38 313.39 343.38 C 313.37 333.38 313.37 323.38 313.38 313.38 Z"/>
    <path d="M 373.38 358.38 C 383.38 358.37 393.38 358.37 403.38 358.39 C 403.38 368.38 403.39 378.38 403.37 388.37 C 393.38 388.39 383.38 388.38 373.39 388.38 C 373.37 378.38 373.37 368.38 373.38 358.38 Z"/>
  </g>
</svg>
